mtllib asd.mtl
o Default
v 1.5 0.5 -0.5
v 1 1 -8.881784197001252e-16
v 2 1 -8.881784197001252e-16
v 1.5 0.5 -0.5
v 1 1 -1
v 2 1 -1
v 1.5 0.5 -0.5
v 1.5 0.5 -0.5
v 1.5 0.5 -0.5
v 2 1 -1
v 2 1 -8.881784197001252e-16
v 1.5 0.5 -0.5
v 1 1 -8.881784197001252e-16
v 1 1 -1
v 1.5 0.5 -0.5
v 1.5 0.5 -0.5
vt 0.1875 0.75
vt 0.25 0.8125
vt 0.1875 0.8125
vt 0.1875 0.75
vt 0.25 0.75
vt 0.25 0.8125
vt 0.1875 0.8125
vt 0.25 0.8125
vt 0.1875 0.75
vt 0.25 0.8125
vt 0.25 0.75
vt 0.1875 0.75
vt 0.1875 0.75
vt 0.25 0.8125
vt 0.1875 0.8125
vt 0.1875 0.75
vt 0.25 0.75
vt 0.25 0.8125
vt 0.1875 0.8125
vt 0.25 0.8125
vt 0.1875 0.75
vt 0.25 0.8125
vt 0.25 0.75
vt 0.1875 0.75
vn 0 -0.7071067811865469 0.7071067811865481
vn 0 -0.7071067811865469 0.7071067811865481
vn 0 -0.7071067811865469 0.7071067811865481
vn 0 0 0
vn 0 0 0
vn 0 0 0
vn 0 -0.7071067811865475 -0.7071067811865475
vn 0 -0.7071067811865475 -0.7071067811865475
vn 0 -0.7071067811865475 -0.7071067811865475
vn 0 0 0
vn 0 0 0
vn 0 0 0
vn 0.7071067811865475 -0.7071067811865475 0
vn 0.7071067811865475 -0.7071067811865475 0
vn 0.7071067811865475 -0.7071067811865475 0
vn 0 0 0
vn 0 0 0
vn 0 0 0
vn -0.7071067811865475 -0.7071067811865475 0
vn -0.7071067811865475 -0.7071067811865475 0
vn -0.7071067811865475 -0.7071067811865475 0
vn 0 0 0
vn 0 0 0
vn 0 0 0
g Scene
usemtl 0
f 1/1/1 3/2/2 2/3/3
f 1/4/4 4/5/5 3/6/6
f 5/7/7 6/8/8 7/9/9
f 6/10/10 8/11/11 7/12/12
f 9/13/13 10/14/14 11/15/15
f 9/16/16 12/17/17 10/18/18
f 13/19/19 14/20/20 15/21/21
f 14/22/22 16/23/23 15/24/24
