{"accessors":[{"bufferView":0,"byteOffset":0,"componentType":5126,"count":24,"max":[0.5,0.5,0.5],"min":[-0.5,-0.5,-0.5],"normalized":false,"type":"VEC3"},{"bufferView":1,"byteOffset":0,"componentType":5125,"count":24,"max":[23],"min":[0],"normalized":false,"type":"SCALAR"}],"asset":{"generator":"Godot Engine v4.1.2.stable.official@399c9dc393f6f84c0b4e4d4117906c70c048ecf2","version":"2.0"},"bufferViews":[{"buffer":0,"byteLength":288,"byteOffset":0},{"buffer":0,"byteLength":96,"byteOffset":288}],"buffers":[{"byteLength":384,"uri":"coli0.bin"}],"extensions":{"OMI_collider":{"colliders":[{"mesh":0,"type":"trimesh"}]}},"extensionsUsed":["OMI_collider","OMI_physics_body"],"meshes":[{"extras":{"targetNames":[]},"primitives":[{"attributes":{"POSITION":0},"indices":1,"mode":4}]}],"nodes":[{"children":[1,3],"extensions":{},"name":"Coli"},{"children":[2],"extensions":{"OMI_physics_body":{"type":"static"}},"name":"StaticBody3D","rotation":[-0.0000000437114,-0.0000000437114,1,-0],"scale":[1,0.5,1],"translation":[-0.5,0.25,0]},{"extensions":{"OMI_collider":{"collider":0}},"name":"CollisionShape3D"},{"children":[4],"extensions":{"OMI_physics_body":{"type":"static"}},"name":"StaticBody3D2","rotation":[1,0,0,0.000000043711398944879],"scale":[1,0.5,1],"translation":[0.5,0.25,0]},{"extensions":{"OMI_collider":{"collider":0}},"name":"CollisionShape3D2"}],"scene":0,"scenes":[{"nodes":[0]}]}